<svg width="90" height="90" viewBox="0 0 90 90" fill="none" xmlns="http://www.w3.org/2000/svg">
<circle cx="45" cy="45" r="40.5" stroke="#5374FF"/>
<path d="M72.0332 17.9668C74.6768 15.3232 74.7017 10.9884 71.6918 8.77084C66.3956 4.8689 60.2848 2.15872 53.7791 0.864661C45.0499 -0.871673 36.0019 0.0194789 27.7792 3.42542C19.5566 6.83137 12.5285 12.5991 7.58386 19.9993C2.6392 27.3996 -1.34389e-06 36.0998 0 45C1.34389e-06 53.9002 2.63921 62.6005 7.58387 70.0007C12.5285 77.4009 19.5566 83.1686 27.7793 86.5746C36.0019 89.9805 45.0499 90.8717 53.7791 89.1353C60.2848 87.8413 66.3956 85.1311 71.6918 81.2291C74.7017 79.0116 74.6768 74.6768 72.0332 72.0332C69.3896 69.3896 65.1308 69.4653 61.9837 71.4834C58.69 73.5956 55.0142 75.0858 51.1378 75.8568C45.0349 77.0708 38.7091 76.4477 32.9603 74.0665C27.2114 71.6853 22.2979 67.6528 18.8408 62.479C15.3838 57.3052 13.5386 51.2225 13.5386 45C13.5386 38.7775 15.3838 32.6948 18.8408 27.521C22.2978 22.3472 27.2114 18.3147 32.9603 15.9335C38.7091 13.5523 45.0349 12.9292 51.1378 14.1432C55.0142 14.9142 58.69 16.4044 61.9837 18.5166C65.1308 20.5347 69.3896 20.6104 72.0332 17.9668Z" fill="#5374FF"/>
<circle cx="45.5" cy="45.5" r="10.5" fill="#5374FF"/>
</svg>
